<svg width="156" height="48" viewBox="0 0 156 48" fill="none" xmlns="http://www.w3.org/2000/svg">
<path d="M51.6287 10.0519C53.6124 10.0519 55.9802 10.6085 55.9802 12.2976C55.9802 13.0729 55.4134 13.828 54.5633 13.828C53.7943 13.828 52.985 13.1523 51.7099 13.1523C49.0583 13.1523 48.006 15.2591 48.006 17.445C48.006 19.6911 49.18 21.6188 51.4265 21.6188C53.4705 21.6188 53.7943 20.963 54.6445 20.963C55.9398 20.963 56.1015 22.0361 56.1015 22.4533C56.1015 24.2223 53.3694 24.8384 51.568 24.8384C47.0345 24.8384 44.4844 21.4994 44.4844 17.445C44.4844 13.1523 47.2977 10.0519 51.6287 10.0519Z" fill="white"/>
<path d="M59.5245 19.2341C59.5245 20.6652 60.2938 21.8574 61.6902 21.8574C63.0866 21.8574 63.8559 20.6652 63.8559 19.2341C63.8559 17.803 63.0866 16.6105 61.6902 16.6105C60.2938 16.6105 59.5245 17.803 59.5245 19.2341ZM67.0132 23.0301C67.0132 23.9241 66.3656 24.6399 65.4342 24.6399C64.6653 24.6399 64.1797 24.123 63.957 23.6462C63.2487 24.5005 62.4389 24.8384 61.2451 24.8384C58.4924 24.8384 56.3672 22.3541 56.3672 19.2341C56.3672 16.1138 58.4924 13.6295 61.2451 13.6295C62.4389 13.6295 63.2487 13.9673 63.957 14.822C64.1797 14.3449 64.6653 13.8284 65.4342 13.8284C66.3656 13.8284 67.0132 14.5434 67.0132 15.4378V23.0301Z" fill="white"/>
<path d="M75.8438 19.2339C75.8438 17.8028 75.0749 16.6103 73.6781 16.6103C72.2818 16.6103 71.5128 17.8028 71.5128 19.2339C71.5128 20.665 72.2818 21.8572 73.6781 21.8572C75.0749 21.8572 75.8438 20.665 75.8438 19.2339ZM68.3555 15.4376C68.3555 14.5432 69.0031 13.8282 69.9341 13.8282C70.7031 13.8282 71.189 14.3447 71.4114 14.8218C72.1197 13.9671 72.9294 13.6293 74.1233 13.6293C76.8759 13.6293 79.0012 16.1136 79.0012 19.2339C79.0012 22.3539 76.8759 24.8382 74.1233 24.8382C72.7673 24.8382 72.0796 24.4209 71.5128 23.964V27.3225C71.5128 28.2169 70.8652 28.9326 69.9341 28.9326C69.0031 28.9326 68.3555 28.2169 68.3555 27.3225V15.4376Z" fill="white"/>
<path d="M80.8441 16.8023H80.4799C79.468 16.8023 78.8203 16.3652 78.8203 15.3712C78.8203 14.3775 79.468 13.9404 80.4799 13.9404H80.8441V11.9134C80.8441 11.019 81.4918 10.3036 82.4228 10.3036C83.3538 10.3036 84.0015 11.019 84.0015 11.9134V13.9404H84.8715C85.8837 13.9404 86.5314 14.3775 86.5314 15.3712C86.5314 16.3652 85.8837 16.8023 84.8715 16.8023H84.0015V23.023C84.0015 23.9171 83.3538 24.6328 82.4228 24.6328C81.4918 24.6328 80.8441 23.9171 80.8441 23.023V16.8023Z" fill="white"/>
<path d="M89.4894 19.2341C89.4894 20.6652 90.2587 21.8574 91.655 21.8574C93.0514 21.8574 93.8207 20.6652 93.8207 19.2341C93.8207 17.803 93.0514 16.6105 91.655 16.6105C90.2587 16.6105 89.4894 17.803 89.4894 19.2341ZM96.9781 23.0301C96.9781 23.9241 96.3304 24.6399 95.399 24.6399C94.6301 24.6399 94.1445 24.123 93.9218 23.6462C93.2135 24.5005 92.4038 24.8384 91.2099 24.8384C88.4573 24.8384 86.332 22.3541 86.332 19.2341C86.332 16.1138 88.4573 13.6295 91.2099 13.6295C92.4038 13.6295 93.2135 13.9673 93.9218 14.822C94.1445 14.3449 94.6301 13.8284 95.399 13.8284C96.3304 13.8284 96.9781 14.5434 96.9781 15.4378V23.0301Z" fill="white"/>
<path d="M98.3192 15.4308C98.3192 14.5364 98.9669 13.821 99.8979 13.821C100.829 13.821 101.476 14.5364 101.476 15.4308V23.0227C101.476 23.9171 100.829 24.6328 99.8979 24.6328C98.9669 24.6328 98.3192 23.9171 98.3192 23.0227V15.4308ZM99.8979 9.21036C100.93 9.21036 101.78 10.025 101.78 11.0584C101.78 12.0917 100.93 12.9067 99.8979 12.9067C98.8658 12.9067 98.0156 12.0917 98.0156 11.0584C98.0156 10.025 98.8658 9.21036 99.8979 9.21036Z" fill="white"/>
<path d="M102.879 15.4308C102.879 14.5364 103.527 13.821 104.458 13.821C105.307 13.821 105.833 14.3577 106.036 14.8146C106.542 14.0397 107.392 13.6221 108.748 13.6221C110.934 13.6221 112.674 14.7352 112.674 17.2791V23.0227C112.674 23.9171 112.027 24.6328 111.096 24.6328C110.164 24.6328 109.517 23.9171 109.517 23.0227V18.1139C109.517 17.0405 108.869 16.2457 107.776 16.2457C106.684 16.2457 106.036 17.0405 106.036 18.1139V23.0227C106.036 23.9171 105.388 24.6328 104.458 24.6328C103.527 24.6328 102.879 23.9171 102.879 23.0227V15.4308Z" fill="white"/>
<path d="M121.244 12.2711C121.548 10.5816 122.58 10.2437 123.41 10.2437C125.049 10.2437 125.413 11.1782 126.243 13.7221L127.842 18.5911H127.883L129.482 13.7221C130.311 11.1782 130.675 10.2437 132.315 10.2437C133.145 10.2437 134.177 10.5816 134.48 12.2711L135.776 19.5451C136.039 21.0159 136.322 22.6256 136.322 23.1024C136.322 23.8182 135.756 24.6328 134.784 24.6328C133.306 24.6328 133.044 23.5994 132.882 22.5062L131.91 16.2259H131.87L129.663 23.1822C129.339 24.2156 128.854 24.6328 127.862 24.6328C126.871 24.6328 126.385 24.2156 126.061 23.1822L123.855 16.2259H123.815L122.843 22.5062C122.681 23.5994 122.418 24.6328 120.94 24.6328C119.969 24.6328 119.402 23.8182 119.402 23.1024C119.402 22.6256 119.686 21.0159 119.949 19.5451L121.244 12.2711Z" fill="white"/>
<path d="M137.308 15.4308C137.308 14.5364 137.955 13.821 138.886 13.821C139.817 13.821 140.465 14.5364 140.465 15.4308V23.0227C140.465 23.9171 139.817 24.6328 138.886 24.6328C137.955 24.6328 137.308 23.9171 137.308 23.0227V15.4308ZM138.886 9.21036C139.918 9.21036 140.768 10.025 140.768 11.0584C140.768 12.0917 139.918 12.9067 138.886 12.9067C137.854 12.9067 137.004 12.0917 137.004 11.0584C137.004 10.025 137.854 9.21036 138.886 9.21036Z" fill="white"/>
<path d="M141.82 10.8201C141.82 9.92575 142.468 9.21036 143.399 9.21036C144.33 9.21036 144.977 9.92575 144.977 10.8201V23.023C144.977 23.9171 144.33 24.6328 143.399 24.6328C142.468 24.6328 141.82 23.9171 141.82 23.023V10.8201Z" fill="white"/>
<path d="M146.367 10.8201C146.367 9.92575 147.015 9.21036 147.946 9.21036C148.877 9.21036 149.524 9.92575 149.524 10.8201V17.4184L152.095 14.8944C152.641 14.358 153.106 13.8213 153.875 13.8213C154.806 13.8213 155.414 14.497 155.414 15.2524C155.414 15.8086 155.05 16.1663 154.3 16.8817L152.601 18.5312L155.252 21.8305C155.576 22.2279 156.001 22.7448 156.001 23.2021C156.001 23.798 155.535 24.6328 154.443 24.6328C153.714 24.6328 153.39 24.4141 152.722 23.5796L149.565 19.5252H149.524V23.023C149.524 23.9171 148.877 24.6328 147.946 24.6328C147.015 24.6328 146.367 23.9171 146.367 23.023V10.8201Z" fill="white"/>
<path d="M46.6947 32.9627L45.1996 30.9915C44.6552 30.247 44.4844 30.0372 44.4844 29.6911C44.4844 29.2403 44.8901 28.936 45.4029 28.936C45.8724 28.936 46.0969 29.2612 46.2781 29.5131L47.5595 31.306L48.8412 29.5131C49.0224 29.2612 49.2469 28.936 49.7168 28.936C50.2292 28.936 50.6349 29.2403 50.6349 29.6911C50.6349 30.0372 50.4641 30.247 49.9196 30.9915L48.4246 32.9627V35.6261C48.4246 36.224 48.0614 36.5283 47.5595 36.5283C47.0579 36.5283 46.6947 36.224 46.6947 35.6261V32.9627Z" fill="white"/>
<path d="M51.2947 33.6754C51.2947 34.4305 51.7005 35.0597 52.4373 35.0597C53.1742 35.0597 53.5799 34.4305 53.5799 33.6754C53.5799 32.9207 53.1742 32.2912 52.4373 32.2912C51.7005 32.2912 51.2947 32.9207 51.2947 33.6754ZM55.2458 33.6754C55.2458 35.3219 54.1244 36.6328 52.4373 36.6328C50.7503 36.6328 49.6289 35.3219 49.6289 33.6754C49.6289 32.0294 50.7503 30.7184 52.4373 30.7184C54.1244 30.7184 55.2458 32.0294 55.2458 33.6754Z" fill="white"/>
<path d="M60.9495 34.4514C60.9495 35.9612 59.7532 36.6328 58.3652 36.6328C56.9772 36.6328 55.7812 35.9612 55.7812 34.4514V31.6727C55.7812 31.2007 56.1228 30.8232 56.614 30.8232C57.1051 30.8232 57.4467 31.2007 57.4467 31.6727V34.2207C57.4467 34.8396 57.9274 35.1226 58.3652 35.1226C58.803 35.1226 59.2833 34.8396 59.2833 34.2207V31.6727C59.2833 31.2007 59.6253 30.8232 60.1164 30.8232C60.6079 30.8232 60.9495 31.2007 60.9495 31.6727V34.4514Z" fill="white"/>
<path d="M61.7109 31.673C61.7109 31.2013 62.0525 30.8238 62.5437 30.8238C62.9923 30.8238 63.2697 31.1068 63.3768 31.3478C63.6542 31.023 64.06 30.7187 64.5298 30.7187C64.9572 30.7187 65.3842 31.0545 65.3842 31.5682C65.3842 32.1344 64.9464 32.2706 64.3378 32.4489C63.6117 32.6588 63.3768 32.8474 63.3768 33.6863V35.6788C63.3768 36.1504 63.0352 36.5283 62.5437 36.5283C62.0525 36.5283 61.7109 36.1504 61.7109 35.6788V31.673Z" fill="white"/>
<path d="M68.4492 31.673C68.4492 31.2013 68.7908 30.8238 69.282 30.8238C69.7306 30.8238 70.0084 31.1068 70.1154 31.3478C70.382 30.9391 70.9481 30.7187 71.5459 30.7187C72.0262 30.7187 72.6885 30.8864 73.0943 31.3899C73.4892 31.0962 73.9915 30.7187 74.7068 30.7187C75.8598 30.7187 76.7783 31.306 76.7783 32.6481V35.6788C76.7783 36.1504 76.4367 36.5283 75.9456 36.5283C75.4541 36.5283 75.1121 36.1504 75.1121 35.6788V33.0887C75.1121 32.5746 74.8242 32.1029 74.2794 32.1029C73.7349 32.1029 73.4467 32.5746 73.4467 33.0887V35.6788C73.4467 36.1504 73.1051 36.5283 72.6136 36.5283C72.1225 36.5283 71.7809 36.1504 71.7809 35.6788V33.0887C71.7809 32.5746 71.4926 32.1029 70.9481 32.1029C70.4033 32.1029 70.1154 32.5746 70.1154 33.0887V35.6788C70.1154 36.1504 69.7734 36.5283 69.282 36.5283C68.7908 36.5283 68.4492 36.1504 68.4492 35.6788V31.673Z" fill="white"/>
<path d="M77.5155 31.673C77.5155 31.2013 77.8571 30.8238 78.3482 30.8238C78.8397 30.8238 79.1816 31.2013 79.1816 31.673V35.6788C79.1816 36.1504 78.8397 36.5283 78.3482 36.5283C77.8571 36.5283 77.5155 36.1504 77.5155 35.6788V31.673ZM78.3482 28.3911C78.893 28.3911 79.3413 28.8207 79.3413 29.3663C79.3413 29.9116 78.893 30.3411 78.3482 30.3411C77.8041 30.3411 77.3555 29.9116 77.3555 29.3663C77.3555 28.8207 77.8041 28.3911 78.3482 28.3911Z" fill="white"/>
<path d="M79.8867 29.2403C79.8867 28.7683 80.2283 28.3911 80.7195 28.3911C81.2109 28.3911 81.5529 28.7683 81.5529 29.2403V35.6788C81.5529 36.1504 81.2109 36.5283 80.7195 36.5283C80.2283 36.5283 79.8867 36.1504 79.8867 35.6788V29.2403Z" fill="white"/>
<path d="M82.2891 29.2403C82.2891 28.7683 82.6307 28.3911 83.1221 28.3911C83.6133 28.3911 83.9552 28.7683 83.9552 29.2403V32.7217L85.3112 31.3899C85.5994 31.1068 85.8452 30.8238 86.2509 30.8238C86.742 30.8238 87.0624 31.1804 87.0624 31.5788C87.0624 31.8722 86.8703 32.0608 86.475 32.4383L85.5782 33.3088L86.9773 35.0496C87.1478 35.2591 87.3723 35.5316 87.3723 35.7732C87.3723 36.0875 87.1265 36.5283 86.55 36.5283C86.1652 36.5283 85.9947 36.413 85.6423 35.9721L83.9765 33.8331H83.9552V35.6788C83.9552 36.1504 83.6133 36.5283 83.1221 36.5283C82.6307 36.5283 82.2891 36.1504 82.2891 35.6788V29.2403Z" fill="white"/>
<path d="M90.5859 29.2403C90.5859 28.7683 90.9275 28.3911 91.4187 28.3911C91.9102 28.3911 92.2521 28.7683 92.2521 29.2403V35.6788C92.2521 36.1504 91.9102 36.5283 91.4187 36.5283C90.9275 36.5283 90.5859 36.1504 90.5859 35.6788V29.2403Z" fill="white"/>
<path d="M96.6815 33.0884C96.6815 32.7212 96.2542 32.1026 95.6034 32.1026C94.9516 32.1026 94.5246 32.7212 94.5246 33.0884H96.6815ZM94.5246 34.2104C94.5246 34.5565 94.7912 35.1226 95.8592 35.1226C96.6815 35.1226 97.1838 34.6089 97.5679 34.6089C97.9416 34.6089 98.2619 34.8919 98.2619 35.3112C98.2619 36.1084 96.9056 36.6328 95.6459 36.6328C93.8518 36.6328 92.7305 35.3219 92.7305 33.6754C92.7305 32.1026 93.9372 30.7184 95.6459 30.7184C97.2901 30.7184 98.3477 32.0711 98.3477 33.4975C98.3477 34.0739 98.0695 34.2104 97.5359 34.2104H94.5246Z" fill="white"/>
<path d="M100.338 33.6754C100.338 34.4305 100.744 35.0597 101.481 35.0597C102.218 35.0597 102.623 34.4305 102.623 33.6754C102.623 32.9207 102.218 32.2912 101.481 32.2912C100.744 32.2912 100.338 32.9207 100.338 33.6754ZM104.289 35.6782C104.289 36.1502 103.947 36.5277 103.456 36.5277C103.05 36.5277 102.794 36.2549 102.677 36.0033C102.303 36.4541 101.876 36.6328 101.246 36.6328C99.7932 36.6328 98.6719 35.3219 98.6719 33.6754C98.6719 32.0294 99.7932 30.7184 101.246 30.7184C101.961 30.7184 102.324 30.9385 102.623 31.1798V29.2401C102.623 28.7681 102.965 28.3905 103.456 28.3905C103.947 28.3905 104.289 28.7681 104.289 29.2401V35.6782Z" fill="white"/>
<path d="M107.621 32.2877C106.884 32.2877 106.478 32.9171 106.478 33.6719C106.478 34.4687 106.884 35.077 107.621 35.077C108.358 35.077 108.764 34.4687 108.764 33.6719C108.764 32.9171 108.358 32.2877 107.621 32.2877ZM110.429 35.9159C110.429 38.0025 109.041 38.7891 107.407 38.7891C106.543 38.7891 104.919 38.4639 104.919 37.5726C104.919 37.2056 105.283 36.8599 105.613 36.8599C106.094 36.8599 106.403 37.3419 107.376 37.3419C108.411 37.3419 108.764 36.8072 108.764 35.895H108.742C108.379 36.3978 107.781 36.5241 107.226 36.5241C105.613 36.5241 104.812 35.1505 104.812 33.6719C104.812 32.0258 105.934 30.7148 107.386 30.7148C108.016 30.7148 108.443 30.8932 108.817 31.344C108.935 31.0924 109.191 30.8196 109.596 30.8196C110.088 30.8196 110.429 31.1971 110.429 31.6691V35.9159Z" fill="white"/>
<path d="M114.904 33.0884C114.904 32.7212 114.477 32.1026 113.826 32.1026C113.174 32.1026 112.747 32.7212 112.747 33.0884H114.904ZM112.747 34.2104C112.747 34.5565 113.014 35.1226 114.082 35.1226C114.904 35.1226 115.406 34.6089 115.791 34.6089C116.164 34.6089 116.485 34.8919 116.485 35.3112C116.485 36.1084 115.128 36.6328 113.869 36.6328C112.074 36.6328 110.953 35.3219 110.953 33.6754C110.953 32.1026 112.16 30.7184 113.869 30.7184C115.513 30.7184 116.57 32.0711 116.57 33.4975C116.57 34.0739 116.292 34.2104 115.759 34.2104H112.747Z" fill="white"/>
<path d="M117.117 31.673C117.117 31.2013 117.459 30.8238 117.95 30.8238C118.399 30.8238 118.676 31.1068 118.783 31.3478C119.06 31.023 119.467 30.7187 119.936 30.7187C120.364 30.7187 120.791 31.0545 120.791 31.5682C120.791 32.1344 120.353 32.2706 119.744 32.4489C119.018 32.6588 118.783 32.8474 118.783 33.6863V35.6788C118.783 36.1504 118.441 36.5283 117.95 36.5283C117.459 36.5283 117.117 36.1504 117.117 35.6788V31.673Z" fill="white"/>
<path d="M35.5747 17.4666C35.5747 27.1133 17.7875 48 17.7875 48C17.7875 48 0 27.1133 0 17.4666C0 7.8199 7.96378 0 17.7875 0C27.6109 0 35.5747 7.8199 35.5747 17.4666Z" fill="white"/>
<path d="M9.00578 12.88C8.30132 14.1927 10.3865 14.296 10.2185 15.7494C10.1414 16.4131 9.17239 16.2481 8.0744 15.7148C6.92203 15.1548 4.79888 15.5906 5.76059 16.8991C6.52291 17.9363 10.0191 17.0364 8.59342 19.0696C7.71363 20.3248 5.18092 18.3997 3.90898 18.3364C2.62032 18.2721 1.53278 18.9696 2.44987 20.4168C3.19476 21.5933 5.16523 21.6207 6.43891 21.5717C8.2201 21.5032 9.60218 22.4339 8.41948 23.8065C7.55817 24.806 5.54587 23.9106 5.04707 25.1301C4.53955 26.3719 6.23952 28.2111 7.40689 27.7031C7.75685 27.5508 8.28877 27.1298 8.5847 26.7426C9.33413 25.761 9.76531 25.583 10.7099 25.815C12.2356 26.1895 10.718 28.2261 10.8518 29.8034C10.9463 30.9165 11.9868 31.1705 12.7358 31.4464C13.2786 31.6463 14.6456 31.661 15.0765 31.24C16.0093 30.3284 14.5955 28.846 14.4822 27.8547C14.3996 27.1339 14.5944 26.9419 15.2417 26.8693C16.1975 26.7622 16.2738 27.2188 16.4237 27.9311C16.5711 28.6293 16.6252 29.2126 17.4356 29.4412C17.7647 29.534 18.9819 29.5528 19.2907 29.3533C20.4727 28.5879 18.5667 26.6362 20.801 27.2003C21.6272 27.4091 21.6279 27.4128 21.6502 28.2542C21.6655 28.8303 21.6355 29.4073 21.6502 29.9834C21.6679 30.6851 21.669 31.3337 22.409 31.5887C22.7367 31.702 23.6611 31.6599 24.0149 31.5874C25.2077 31.3433 25.1136 30.0307 24.6677 29.1041C24.171 28.0721 23.0514 27.0675 24.0675 25.8725C24.8967 24.8974 26.306 25.6083 27.2119 26.1409C28.2249 26.7365 30.5478 27.6295 30.2494 25.5104C30.0312 23.9626 28.342 23.814 27.4437 22.8567C26.0488 21.3698 28.7415 21.6251 29.5 21.3232C31.2686 20.6188 29.8736 19.441 28.7355 19.1757C26.9275 18.754 26.3559 17.187 28.5107 16.8495C29.0064 16.7718 30.0469 17.086 30.5899 16.9032C31.01 16.7615 31.5422 16.6698 31.5405 15.6532C31.5391 14.8742 30.5931 14.1112 29.5913 14.5463C28.6575 14.9519 26.4287 15.3027 25.8574 14.2043C25.0208 12.5969 27.0066 11.9966 27.1499 11.0388C27.3859 9.45952 25.1888 9.4448 24.2589 10.2481C23.6701 10.7571 23.6799 11.3267 23.5889 12.0072C23.4917 12.7345 22.7307 13.3051 22.0583 12.9088C20.7404 12.1324 23.4707 9.07753 21.4191 8.64796C20.6421 8.48537 19.6257 9.43659 20.0617 11.1593C20.2001 11.7066 20.1531 13.2322 19.3294 13.223C17.7099 13.2052 18.6615 10.0198 18.5601 9.14359C18.3917 7.69024 16.7402 8.14479 16.5084 8.71402C16.301 9.22334 17.1139 10.2995 16.6384 11.2274C15.9252 12.6188 14.3525 9.40167 14.2545 8.64796C13.9712 6.46827 14.623 5.4195 14.12 4.3543C13.4811 2.99987 10.2714 3.39419 10.2185 5.57627C10.1832 7.02551 11.2746 7.9158 11.749 8.97929C12.2656 10.1376 12.5783 11.2288 12.6937 12.5507C12.8355 14.1738 11.6148 14.4391 11.2297 13.6638C10.5454 12.2865 9.30625 12.3197 9.00578 12.88Z" fill="#0D0D0D"/>
<path d="M23.2678 32.7398C23.2678 34.5615 23.2689 36.3831 23.2675 38.2048C23.2664 39.5739 22.577 40.2541 21.1917 40.2544C18.9163 40.2547 16.6412 40.2554 14.3657 40.2541C13.0718 40.2534 12.3555 39.549 12.3548 38.2688C12.3524 34.6399 12.3482 31.0106 12.3565 27.3817C12.3604 25.7804 12.7285 24.2586 13.4869 22.8364C14.1848 21.5282 14.541 20.1433 14.5198 18.6636C14.5163 18.4216 14.4744 18.2583 14.2524 18.0995C13.8125 17.7853 13.678 16.9809 13.9063 16.3641C14.0764 15.9044 14.4954 15.6587 15.1245 15.6583C16.9071 15.6566 18.6901 15.6569 20.4726 15.658C21.1266 15.6583 21.5584 15.9109 21.7216 16.3819C21.9426 17.0213 21.8038 17.7884 21.3528 18.1105C21.1409 18.2617 21.1095 18.4185 21.1046 18.6417C21.0718 20.1077 21.4134 21.4882 22.104 22.7799C22.8942 24.2573 23.2629 25.8284 23.2668 27.4881C23.271 29.2389 23.2678 30.9894 23.2678 32.7398Z" fill="white"/>
</svg>
