<svg width="24" height="24" viewBox="0 0 24 24" fill="none" xmlns="http://www.w3.org/2000/svg">
<rect width="24" height="24" rx="12" fill="#BDBDC4"/>
<path d="M18.7762 7.76866C18.2672 7.99379 17.7275 8.14165 17.1748 8.20733C17.7573 7.85895 18.1933 7.31067 18.4015 6.66466C17.8548 6.99 17.2555 7.218 16.6308 7.34133C16.2112 6.89238 15.6551 6.59464 15.0488 6.49439C14.4425 6.39414 13.8201 6.49699 13.2783 6.78697C12.7366 7.07694 12.3058 7.53779 12.0529 8.09786C11.8001 8.65793 11.7393 9.28585 11.8802 9.884C10.7716 9.82843 9.68705 9.54035 8.69702 9.03844C7.70699 8.53653 6.83359 7.83203 6.1335 6.97066C5.88569 7.3963 5.75547 7.88015 5.75617 8.37266C5.75617 9.33933 6.24817 10.1933 6.99617 10.6933C6.55351 10.6794 6.12059 10.5599 5.7335 10.3447V10.3793C5.73363 11.0231 5.95641 11.6471 6.36407 12.1454C6.77172 12.6437 7.33915 12.9856 7.97017 13.1133C7.55924 13.2247 7.12837 13.2411 6.71017 13.1613C6.88808 13.7155 7.23484 14.2001 7.70189 14.5474C8.16895 14.8947 8.73292 15.0872 9.31483 15.098C8.73649 15.5522 8.07428 15.888 7.36609 16.0861C6.65789 16.2842 5.91758 16.3408 5.1875 16.2527C6.46197 17.0723 7.94556 17.5074 9.46083 17.506C14.5895 17.506 17.3942 13.2573 17.3942 9.57267C17.3942 9.45267 17.3908 9.33133 17.3855 9.21267C17.9314 8.81811 18.4026 8.32934 18.7768 7.76933L18.7762 7.76866Z" fill="#0D0D0D"/>
</svg>
