<svg width="16" height="16" viewBox="0 0 16 16" fill="none" xmlns="http://www.w3.org/2000/svg">
<path d="M7.21562 0.0179682C6.80625 0.0679684 6.39062 0.142968 6.02187 0.233594C3.77187 0.796094 1.82812 2.37109 0.809375 4.45234C0.45 5.18672 0.228125 5.87734 0.08125 6.71797C0.021875 7.05859 0.015625 7.22422 0.015625 7.99922C0.015625 8.77422 0.021875 8.93984 0.08125 9.28047C0.228125 10.1242 0.453125 10.818 0.8125 11.5492C1.825 13.6117 3.73437 15.1711 5.95312 15.7492C6.72187 15.9492 7.01562 15.9805 7.99687 15.9805C8.77187 15.9805 8.9375 15.9742 9.27812 15.9148C10.4437 15.7086 11.4875 15.3023 12.4125 14.6867C14.3125 13.4211 15.5437 11.4992 15.925 9.20234C16.0062 8.70547 16.0062 7.28984 15.925 6.79609C15.6906 5.40547 15.1937 4.23047 14.3781 3.14609C14.0906 2.76484 13.5187 2.16797 13.1219 1.83672C12.2594 1.11172 11.1375 0.533593 10.0406 0.249219C9.33125 0.0648432 8.99687 0.0242186 8.12187 0.0148439C7.68437 0.00859356 7.275 0.0117188 7.21562 0.0179682ZM6.06875 4.64609C6.51562 5.08984 6.89687 5.49609 6.92187 5.55234C6.95312 5.62734 6.95625 5.67422 6.93125 5.73984C6.91562 5.78672 6.67812 6.05234 6.40625 6.32734C5.82187 6.91797 5.76562 7.00547 5.78437 7.33047C5.79375 7.53047 5.80937 7.57422 5.90937 7.72109C6.38125 8.40547 7.275 9.32109 8.00937 9.87109C8.40625 10.168 8.5 10.218 8.69687 10.2398C9.00625 10.2711 9.1 10.2148 9.70312 9.62109C10.2312 9.09922 10.2375 9.09297 10.375 9.09297H10.5125L11.3469 9.93047C12.1719 10.7555 12.1844 10.7711 12.1844 10.8961C12.1844 11.0117 12.1625 11.0492 12.0062 11.2211C11.3781 11.8992 10.8031 12.1805 10.1062 12.1461C9.76562 12.1305 9.46875 12.0555 8.91875 11.8367C7.10625 11.118 5.23125 9.37734 4.33125 7.57734C3.96562 6.84297 3.80937 6.35859 3.80937 5.93359C3.80937 5.29922 3.9875 4.88984 4.50937 4.32422C4.85625 3.95234 5 3.84297 5.15 3.84297C5.25312 3.84297 5.31562 3.89922 6.06875 4.64609Z" fill="#BDBEC4"/>
</svg>
