<svg width="24" height="24" viewBox="0 0 24 24" fill="none" xmlns="http://www.w3.org/2000/svg">
<rect width="24" height="24" rx="12" fill="#BDBDC4"/>
<path d="M8.6276 7.334C8.62743 7.68762 8.48678 8.02669 8.23661 8.27661C7.98643 8.52654 7.64723 8.66684 7.2936 8.66667C6.93998 8.66649 6.60091 8.52584 6.35099 8.27567C6.10107 8.0255 5.96076 7.68629 5.96094 7.33267C5.96111 6.97904 6.10176 6.63998 6.35193 6.39005C6.60211 6.14013 6.94132 5.99982 7.29494 6C7.64856 6.00018 7.98763 6.14082 8.23755 6.391C8.48747 6.64117 8.62778 6.98038 8.6276 7.334ZM8.6676 9.654H6.00094V18.0007H8.6676V9.654ZM12.8809 9.654H10.2276V18.0007H12.8543V13.6207C12.8543 11.1807 16.0343 10.954 16.0343 13.6207V18.0007H18.6676V12.714C18.6676 8.60067 13.9609 8.754 12.8543 10.774L12.8809 9.654Z" fill="#0D0D0D"/>
</svg>
