<svg width="24" height="24" viewBox="0 0 24 24" fill="none" xmlns="http://www.w3.org/2000/svg">
<rect width="24" height="24" rx="12" fill="#BDBDC4"/>
<path d="M12.0026 5.33203C13.8139 5.33203 14.0399 5.3387 14.7506 5.37203C15.4606 5.40536 15.9439 5.5167 16.3693 5.68203C16.8093 5.85136 17.1799 6.0807 17.5506 6.4507C17.8896 6.78396 18.1519 7.18709 18.3193 7.63203C18.4839 8.0567 18.5959 8.5407 18.6293 9.2507C18.6606 9.96136 18.6693 10.1874 18.6693 11.9987C18.6693 13.81 18.6626 14.036 18.6293 14.7467C18.5959 15.4567 18.4839 15.94 18.3193 16.3654C18.1524 16.8105 17.89 17.2138 17.5506 17.5467C17.2172 17.8856 16.8141 18.1479 16.3693 18.3154C15.9446 18.48 15.4606 18.592 14.7506 18.6254C14.0399 18.6567 13.8139 18.6654 12.0026 18.6654C10.1913 18.6654 9.96527 18.6587 9.2546 18.6254C8.5446 18.592 8.06127 18.48 7.63594 18.3154C7.19082 18.1483 6.78762 17.886 6.4546 17.5467C6.11554 17.2135 5.85323 16.8103 5.68594 16.3654C5.5206 15.9407 5.40927 15.4567 5.37594 14.7467C5.3446 14.036 5.33594 13.81 5.33594 11.9987C5.33594 10.1874 5.3426 9.96136 5.37594 9.2507C5.40927 8.54003 5.5206 8.05736 5.68594 7.63203C5.85276 7.18682 6.11514 6.78358 6.4546 6.4507C6.78772 6.11152 7.19089 5.84918 7.63594 5.68203C8.06127 5.5167 8.54394 5.40536 9.2546 5.37203C9.96527 5.3407 10.1913 5.33203 12.0026 5.33203ZM12.0026 8.66536C11.1185 8.66536 10.2707 9.01655 9.64558 9.64168C9.02046 10.2668 8.66927 11.1146 8.66927 11.9987C8.66927 12.8828 9.02046 13.7306 9.64558 14.3557C10.2707 14.9808 11.1185 15.332 12.0026 15.332C12.8867 15.332 13.7345 14.9808 14.3596 14.3557C14.9847 13.7306 15.3359 12.8828 15.3359 11.9987C15.3359 11.1146 14.9847 10.2668 14.3596 9.64168C13.7345 9.01655 12.8867 8.66536 12.0026 8.66536V8.66536ZM16.3359 8.4987C16.3359 8.27768 16.2481 8.06572 16.0919 7.90944C15.9356 7.75316 15.7236 7.66536 15.5026 7.66536C15.2816 7.66536 15.0696 7.75316 14.9133 7.90944C14.7571 8.06572 14.6693 8.27768 14.6693 8.4987C14.6693 8.71971 14.7571 8.93167 14.9133 9.08795C15.0696 9.24423 15.2816 9.33203 15.5026 9.33203C15.7236 9.33203 15.9356 9.24423 16.0919 9.08795C16.2481 8.93167 16.3359 8.71971 16.3359 8.4987ZM12.0026 9.9987C12.533 9.9987 13.0417 10.2094 13.4168 10.5845C13.7919 10.9596 14.0026 11.4683 14.0026 11.9987C14.0026 12.5291 13.7919 13.0378 13.4168 13.4129C13.0417 13.788 12.533 13.9987 12.0026 13.9987C11.4722 13.9987 10.9635 13.788 10.5884 13.4129C10.2133 13.0378 10.0026 12.5291 10.0026 11.9987C10.0026 11.4683 10.2133 10.9596 10.5884 10.5845C10.9635 10.2094 11.4722 9.9987 12.0026 9.9987V9.9987Z" fill="#0D0D0D"/>
</svg>
