<svg width="33" height="32" viewBox="0 0 33 32" fill="none" xmlns="http://www.w3.org/2000/svg">
<path d="M8.83398 5.34375V7.5H16.334H23.834V5.34375V3.1875H16.334H8.83398V5.34375Z" fill="#3F3D3D"/>
<path d="M8.59648 9.91875C7.00898 12.2563 5.98398 15.3313 5.71523 18.5188C5.67148 19 5.64648 21.2188 5.64648 24.0687V28.8125H13.1402H20.6402L20.6652 23.5812C20.6902 17.925 20.6902 17.9688 21.0527 16.15C21.4652 14.1062 22.4027 11.775 23.4277 10.2312C23.6527 9.89375 23.834 9.6 23.834 9.5875C23.834 9.575 20.459 9.5625 16.334 9.5625H8.84023L8.59648 9.91875Z" fill="#3F3D3D"/>
<path d="M24.7527 12.0187C23.8402 13.6438 23.2277 15.4812 22.8965 17.5938C22.759 18.4375 22.7527 18.6562 22.734 23.6375L22.709 28.8125H24.8715H27.034L27.009 23.5812C26.9902 19.05 26.9715 18.2437 26.8777 17.625C26.5652 15.5 26.0777 13.7875 25.334 12.1875C25.1902 11.875 25.0465 11.625 25.0215 11.625C24.9965 11.625 24.8715 11.8 24.7527 12.0187Z" fill="#3F3D3D"/>
</svg>
