<svg width="33" height="32" viewBox="0 0 33 32" fill="none" xmlns="http://www.w3.org/2000/svg">
<path d="M9 5.34375V7.5H16.5H24V5.34375V3.1875H16.5H9V5.34375Z" fill="#57ACFF"/>
<path d="M8.7625 9.91875C7.175 12.2563 6.15 15.3313 5.88125 18.5188C5.8375 19 5.8125 21.2188 5.8125 24.0687V28.8125H13.3063H20.8063L20.8313 23.5812C20.8562 17.925 20.8562 17.9688 21.2188 16.15C21.6313 14.1062 22.5688 11.775 23.5938 10.2312C23.8188 9.89375 24 9.6 24 9.5875C24 9.575 20.625 9.5625 16.5 9.5625H9.00625L8.7625 9.91875Z" fill="#57ACFF"/>
<path d="M24.9187 12.0187C24.0062 13.6438 23.3937 15.4812 23.0625 17.5938C22.925 18.4375 22.9187 18.6562 22.9 23.6375L22.875 28.8125H25.0375H27.2L27.175 23.5812C27.1562 19.05 27.1375 18.2437 27.0437 17.625C26.7312 15.5 26.2437 13.7875 25.5 12.1875C25.3562 11.875 25.2125 11.625 25.1875 11.625C25.1625 11.625 25.0375 11.8 24.9187 12.0187Z" fill="#57ACFF"/>
</svg>
