<svg width="130" height="40" viewBox="0 0 130 40" fill="none" xmlns="http://www.w3.org/2000/svg">
<path d="M43.0239 8.37715C44.677 8.37715 46.6502 8.84095 46.6502 10.2486C46.6502 10.8947 46.1779 11.5239 45.4694 11.5239C44.8286 11.5239 44.1541 10.9609 43.0916 10.9609C40.8819 10.9609 40.005 12.7165 40.005 14.538C40.005 16.4098 40.9833 18.0163 42.8554 18.0163C44.5588 18.0163 44.8286 17.4697 45.5371 17.4697C46.6165 17.4697 46.7513 18.364 46.7513 18.7117C46.7513 20.1858 44.4745 20.6992 42.9733 20.6992C39.1954 20.6992 37.0703 17.9167 37.0703 14.538C37.0703 10.9609 39.4147 8.37715 43.0239 8.37715Z" fill="#57ACFF"/>
<path d="M49.6077 16.029C49.6077 17.2216 50.2488 18.2151 51.4124 18.2151C52.5761 18.2151 53.2171 17.2216 53.2171 16.029C53.2171 14.8364 52.5761 13.8426 51.4124 13.8426C50.2488 13.8426 49.6077 14.8364 49.6077 16.029ZM55.8483 19.1923C55.8483 19.9373 55.3086 20.5338 54.5324 20.5338C53.8916 20.5338 53.487 20.1031 53.3014 19.7057C52.7111 20.4177 52.0363 20.6992 51.0415 20.6992C48.7476 20.6992 46.9766 18.629 46.9766 16.029C46.9766 13.4287 48.7476 11.3585 51.0415 11.3585C52.0363 11.3585 52.7111 11.64 53.3014 12.3523C53.487 11.9546 53.8916 11.5242 54.5324 11.5242C55.3086 11.5242 55.8483 12.1201 55.8483 12.8654V19.1923Z" fill="#57ACFF"/>
<path d="M63.2012 16.0271C63.2012 14.8345 62.5604 13.8407 61.3965 13.8407C60.2329 13.8407 59.5921 14.8345 59.5921 16.0271C59.5921 17.2197 60.2329 18.2132 61.3965 18.2132C62.5604 18.2132 63.2012 17.2197 63.2012 16.0271ZM56.9609 12.8635C56.9609 12.1182 57.5006 11.5223 58.2765 11.5223C58.9173 11.5223 59.3222 11.9528 59.5075 12.3504C60.0978 11.6381 60.7726 11.3566 61.7674 11.3566C64.0613 11.3566 65.8323 13.4269 65.8323 16.0271C65.8323 18.6271 64.0613 20.6973 61.7674 20.6973C60.6375 20.6973 60.0644 20.3496 59.5921 19.9688V22.7676C59.5921 23.5129 59.0524 24.1094 58.2765 24.1094C57.5006 24.1094 56.9609 23.5129 56.9609 22.7676V12.8635Z" fill="#57ACFF"/>
<path d="M67.374 14.0019H67.0705C66.2272 14.0019 65.6875 13.6376 65.6875 12.8093C65.6875 11.9812 66.2272 11.617 67.0705 11.617H67.374V9.92778C67.374 9.18245 67.9137 8.5863 68.6896 8.5863C69.4654 8.5863 70.0051 9.18245 70.0051 9.92778V11.617H70.7301C71.5737 11.617 72.1134 11.9812 72.1134 12.8093C72.1134 13.6376 71.5737 14.0019 70.7301 14.0019H70.0051V19.1858C70.0051 19.9308 69.4654 20.5273 68.6896 20.5273C67.9137 20.5273 67.374 19.9308 67.374 19.1858V14.0019Z" fill="#57ACFF"/>
<path d="M74.5764 16.029C74.5764 17.2216 75.2175 18.2151 76.3812 18.2151C77.5448 18.2151 78.1859 17.2216 78.1859 16.029C78.1859 14.8364 77.5448 13.8426 76.3812 13.8426C75.2175 13.8426 74.5764 14.8364 74.5764 16.029ZM80.817 19.1923C80.817 19.9373 80.2773 20.5338 79.5012 20.5338C78.8604 20.5338 78.4557 20.1031 78.2701 19.7057C77.6799 20.4177 77.0051 20.6992 76.0102 20.6992C73.7163 20.6992 71.9453 18.629 71.9453 16.029C71.9453 13.4287 73.7163 11.3585 76.0102 11.3585C77.0051 11.3585 77.6799 11.64 78.2701 12.3523C78.4557 11.9546 78.8604 11.5242 79.5012 11.5242C80.2773 11.5242 80.817 12.1201 80.817 12.8654V19.1923Z" fill="#57ACFF"/>
<path d="M81.9327 12.8589C81.9327 12.1136 82.4724 11.5174 83.2483 11.5174C84.0238 11.5174 84.5635 12.1136 84.5635 12.8589V19.1855C84.5635 19.9308 84.0238 20.5273 83.2483 20.5273C82.4724 20.5273 81.9327 19.9308 81.9327 19.1855V12.8589ZM83.2483 7.67524C84.1084 7.67524 84.8168 8.35411 84.8168 9.21525C84.8168 10.0764 84.1084 10.7555 83.2483 10.7555C82.3882 10.7555 81.6797 10.0764 81.6797 9.21525C81.6797 8.35411 82.3882 7.67524 83.2483 7.67524Z" fill="#57ACFF"/>
<path d="M85.7344 12.8589C85.7344 12.1136 86.2741 11.5174 87.0499 11.5174C87.7578 11.5174 88.1964 11.9647 88.3652 12.3455C88.787 11.6997 89.4954 11.3517 90.6251 11.3517C92.447 11.3517 93.8973 12.2793 93.8973 14.3992V19.1855C93.8973 19.9308 93.3576 20.5273 92.5817 20.5273C91.8056 20.5273 91.2659 19.9308 91.2659 19.1855V15.0949C91.2659 14.2004 90.7262 13.5381 89.8156 13.5381C88.9049 13.5381 88.3652 14.2004 88.3652 15.0949V19.1855C88.3652 19.9308 87.8255 20.5273 87.0499 20.5273C86.2741 20.5273 85.7344 19.9308 85.7344 19.1855V12.8589Z" fill="#57ACFF"/>
<path d="M101.035 10.2259C101.288 8.81791 102.148 8.53638 102.839 8.53638C104.206 8.53638 104.509 9.31509 105.201 11.435L106.533 15.4925H106.567L107.899 11.435C108.59 9.31509 108.894 8.53638 110.26 8.53638C110.952 8.53638 111.812 8.81791 112.065 10.2259L113.144 16.2875C113.364 17.5132 113.6 18.8546 113.6 19.252C113.6 19.8484 113.128 20.5273 112.318 20.5273C111.087 20.5273 110.868 19.6661 110.733 18.7551L109.923 13.5215H109.889L108.051 19.3184C107.781 20.1796 107.377 20.5273 106.55 20.5273C105.724 20.5273 105.319 20.1796 105.049 19.3184L103.21 13.5215H103.177L102.367 18.7551C102.232 19.6661 102.013 20.5273 100.782 20.5273C99.972 20.5273 99.5 19.8484 99.5 19.252C99.5 18.8546 99.7362 17.5132 99.9552 16.2875L101.035 10.2259Z" fill="#57ACFF"/>
<path d="M114.425 12.8589C114.425 12.1136 114.965 11.5174 115.74 11.5174C116.516 11.5174 117.056 12.1136 117.056 12.8589V19.1855C117.056 19.9308 116.516 20.5273 115.74 20.5273C114.965 20.5273 114.425 19.9308 114.425 19.1855V12.8589ZM115.74 7.67524C116.601 7.67524 117.309 8.35411 117.309 9.21525C117.309 10.0764 116.601 10.7555 115.74 10.7555C114.88 10.7555 114.172 10.0764 114.172 9.21525C114.172 8.35411 114.88 7.67524 115.74 7.67524Z" fill="#57ACFF"/>
<path d="M118.18 9.01672C118.18 8.27139 118.719 7.67524 119.495 7.67524C120.271 7.67524 120.811 8.27139 120.811 9.01672V19.1858C120.811 19.9308 120.271 20.5273 119.495 20.5273C118.719 20.5273 118.18 19.9308 118.18 19.1858V9.01672Z" fill="#57ACFF"/>
<path d="M121.969 9.01672C121.969 8.27139 122.508 7.67524 123.284 7.67524C124.06 7.67524 124.6 8.27139 124.6 9.01672V14.5153L126.742 12.4119C127.197 11.965 127.585 11.5177 128.226 11.5177C129.001 11.5177 129.508 12.0808 129.508 12.7103C129.508 13.1738 129.204 13.4719 128.58 14.068L127.163 15.4426L129.373 18.192C129.643 18.5232 129.997 18.9539 129.997 19.335C129.997 19.8316 129.609 20.5273 128.698 20.5273C128.091 20.5273 127.821 20.345 127.264 19.6496L124.634 16.2709H124.6V19.1858C124.6 19.9308 124.06 20.5273 123.284 20.5273C122.508 20.5273 121.969 19.9308 121.969 19.1858V9.01672Z" fill="#57ACFF"/>
<path d="M38.9122 27.4701L37.6664 25.8274C37.2126 25.207 37.0703 25.0321 37.0703 24.7437C37.0703 24.3681 37.4084 24.1145 37.8357 24.1145C38.227 24.1145 38.4141 24.3855 38.5651 24.5954L39.6329 26.0895L40.701 24.5954C40.852 24.3855 41.0391 24.1145 41.4306 24.1145C41.8576 24.1145 42.1957 24.3681 42.1957 24.7437C42.1957 25.0321 42.0534 25.207 41.5997 25.8274L40.3538 27.4701V29.6895C40.3538 30.1878 40.0512 30.4414 39.6329 30.4414C39.2149 30.4414 38.9122 30.1878 38.9122 29.6895V27.4701Z" fill="#1A57BB"/>
<path d="M42.7476 28.0629C42.7476 28.6921 43.0857 29.2164 43.6997 29.2164C44.3138 29.2164 44.6519 28.6921 44.6519 28.0629C44.6519 27.4339 44.3138 26.9094 43.6997 26.9094C43.0857 26.9094 42.7476 27.4339 42.7476 28.0629ZM46.0401 28.0629C46.0401 29.4349 45.1056 30.5273 43.6997 30.5273C42.2938 30.5273 41.3594 29.4349 41.3594 28.0629C41.3594 26.6912 42.2938 25.5987 43.6997 25.5987C45.1056 25.5987 46.0401 26.6912 46.0401 28.0629Z" fill="#1A57BB"/>
<path d="M50.7913 28.7095C50.7913 29.9677 49.7943 30.5273 48.6377 30.5273C47.481 30.5273 46.4844 29.9677 46.4844 28.7095V26.3939C46.4844 26.0006 46.769 25.686 47.1783 25.686C47.5876 25.686 47.8723 26.0006 47.8723 26.3939V28.5173C47.8723 29.033 48.2728 29.2689 48.6377 29.2689C49.0025 29.2689 49.4028 29.033 49.4028 28.5173V26.3939C49.4028 26.0006 49.6877 25.686 50.097 25.686C50.5066 25.686 50.7913 26.0006 50.7913 26.3939V28.7095Z" fill="#1A57BB"/>
<path d="M51.4297 26.3953C51.4297 26.0022 51.7144 25.6876 52.1236 25.6876C52.4975 25.6876 52.7287 25.9235 52.8179 26.1243C53.0491 25.8536 53.3872 25.6 53.7788 25.6C54.1349 25.6 54.4907 25.8799 54.4907 26.308C54.4907 26.7798 54.1259 26.8933 53.6187 27.0419C53.0136 27.2168 52.8179 27.3739 52.8179 28.0731V29.7334C52.8179 30.1265 52.5332 30.4414 52.1236 30.4414C51.7144 30.4414 51.4297 30.1265 51.4297 29.7334V26.3953Z" fill="#1A57BB"/>
<path d="M57.0391 26.3953C57.0391 26.0022 57.3237 25.6876 57.733 25.6876C58.1068 25.6876 58.3384 25.9235 58.4275 26.1243C58.6497 25.7837 59.1215 25.6 59.6196 25.6C60.0199 25.6 60.5718 25.7398 60.9099 26.1594C61.239 25.9147 61.6576 25.6 62.2537 25.6C63.2146 25.6 63.98 26.0895 63.98 27.2079V29.7334C63.98 30.1265 63.6953 30.4414 63.286 30.4414C62.8765 30.4414 62.5915 30.1265 62.5915 29.7334V27.575C62.5915 27.1466 62.3516 26.7535 61.8976 26.7535C61.4438 26.7535 61.2036 27.1466 61.2036 27.575V29.7334C61.2036 30.1265 60.9189 30.4414 60.5094 30.4414C60.1001 30.4414 59.8154 30.1265 59.8154 29.7334V27.575C59.8154 27.1466 59.5752 26.7535 59.1215 26.7535C58.6675 26.7535 58.4275 27.1466 58.4275 27.575V29.7334C58.4275 30.1265 58.1426 30.4414 57.733 30.4414C57.3237 30.4414 57.0391 30.1265 57.0391 29.7334V26.3953Z" fill="#1A57BB"/>
<path d="M64.5943 26.3953C64.5943 26.0022 64.8789 25.6876 65.2882 25.6876C65.6978 25.6876 65.9827 26.0022 65.9827 26.3953V29.7334C65.9827 30.1265 65.6978 30.4414 65.2882 30.4414C64.8789 30.4414 64.5943 30.1265 64.5943 29.7334V26.3953ZM65.2882 23.6604C65.7422 23.6604 66.1158 24.0184 66.1158 24.4731C66.1158 24.9274 65.7422 25.2854 65.2882 25.2854C64.8348 25.2854 64.4609 24.9274 64.4609 24.4731C64.4609 24.0184 64.8348 23.6604 65.2882 23.6604Z" fill="#1A57BB"/>
<path d="M66.5703 24.3681C66.5703 23.9747 66.855 23.6604 67.2643 23.6604C67.6738 23.6604 67.9588 23.9747 67.9588 24.3681V29.7334C67.9588 30.1265 67.6738 30.4414 67.2643 30.4414C66.855 30.4414 66.5703 30.1265 66.5703 29.7334V24.3681Z" fill="#1A57BB"/>
<path d="M68.5703 24.3681C68.5703 23.9747 68.855 23.6604 69.2645 23.6604C69.6738 23.6604 69.9588 23.9747 69.9588 24.3681V27.2693L71.0887 26.1594C71.329 25.9235 71.5337 25.6876 71.8719 25.6876C72.2811 25.6876 72.5481 25.9848 72.5481 26.3168C72.5481 26.5613 72.388 26.7185 72.0586 27.0331L71.3112 27.7584L72.4772 29.2092C72.6192 29.3837 72.8063 29.6108 72.8063 29.8122C72.8063 30.074 72.6015 30.4414 72.1211 30.4414C71.8004 30.4414 71.6584 30.3453 71.3647 29.9779L69.9765 28.1954H69.9588V29.7334C69.9588 30.1265 69.6738 30.4414 69.2645 30.4414C68.855 30.4414 68.5703 30.1265 68.5703 29.7334V24.3681Z" fill="#1A57BB"/>
<path d="M75.4844 24.3681C75.4844 23.9747 75.769 23.6604 76.1783 23.6604C76.5879 23.6604 76.8728 23.9747 76.8728 24.3681V29.7334C76.8728 30.1265 76.5879 30.4414 76.1783 30.4414C75.769 30.4414 75.4844 30.1265 75.4844 29.7334V24.3681Z" fill="#1A57BB"/>
<path d="M80.566 27.5737C80.566 27.2676 80.2099 26.7522 79.6675 26.7522C79.1243 26.7522 78.7685 27.2676 78.7685 27.5737H80.566ZM78.7685 28.5087C78.7685 28.7971 78.9907 29.2689 79.8807 29.2689C80.566 29.2689 80.9845 28.8407 81.3047 28.8407C81.616 28.8407 81.883 29.0766 81.883 29.426C81.883 30.0904 80.7527 30.5273 79.703 30.5273C78.2079 30.5273 77.2734 29.4349 77.2734 28.0629C77.2734 26.7522 78.2791 25.5987 79.703 25.5987C81.0731 25.5987 81.9544 26.726 81.9544 27.9145C81.9544 28.3949 81.7226 28.5087 81.2779 28.5087H78.7685Z" fill="#1A57BB"/>
<path d="M83.615 28.0629C83.615 28.6921 83.9534 29.2164 84.5672 29.2164C85.1813 29.2164 85.5194 28.6921 85.5194 28.0629C85.5194 27.4339 85.1813 26.9094 84.5672 26.9094C83.9534 26.9094 83.615 27.4339 83.615 28.0629ZM86.9076 29.7318C86.9076 30.1252 86.6229 30.4398 86.2133 30.4398C85.8752 30.4398 85.662 30.2124 85.5641 30.0028C85.2522 30.3784 84.8966 30.5273 84.3714 30.5273C83.161 30.5273 82.2266 29.4349 82.2266 28.0629C82.2266 26.6912 83.161 25.5987 84.3714 25.5987C84.9675 25.5987 85.2699 25.7821 85.5194 25.9832V24.3667C85.5194 23.9734 85.8041 23.6588 86.2133 23.6588C86.6229 23.6588 86.9076 23.9734 86.9076 24.3667V29.7318Z" fill="#1A57BB"/>
<path d="M89.6841 26.9064C89.0703 26.9064 88.7319 27.4309 88.7319 28.0599C88.7319 28.7239 89.0703 29.2308 89.6841 29.2308C90.2985 29.2308 90.6363 28.7239 90.6363 28.0599C90.6363 27.4309 90.2985 26.9064 89.6841 26.9064ZM92.0245 29.9299C92.0245 31.6687 90.8678 32.3242 89.506 32.3242C88.7857 32.3242 87.4326 32.0532 87.4326 31.3105C87.4326 31.0047 87.7356 30.7166 88.011 30.7166C88.4118 30.7166 88.6695 31.1182 89.4796 31.1182C90.3426 31.1182 90.6363 30.6727 90.6363 29.9125H90.6186C90.3162 30.3315 89.8174 30.4368 89.355 30.4368C88.011 30.4368 87.3438 29.2921 87.3438 28.0599C87.3438 26.6882 88.2779 25.5957 89.4883 25.5957C90.0135 25.5957 90.3693 25.7443 90.681 26.12C90.7789 25.9103 90.9924 25.683 91.3302 25.683C91.7398 25.683 92.0245 25.9976 92.0245 26.391V29.9299Z" fill="#1A57BB"/>
<path d="M95.7535 27.5737C95.7535 27.2676 95.3974 26.7522 94.855 26.7522C94.3118 26.7522 93.956 27.2676 93.956 27.5737H95.7535ZM93.956 28.5087C93.956 28.7971 94.1785 29.2689 95.0682 29.2689C95.7535 29.2689 96.1715 28.8407 96.4922 28.8407C96.8035 28.8407 97.0705 29.0766 97.0705 29.426C97.0705 30.0904 95.9402 30.5273 94.8905 30.5273C93.3954 30.5273 92.4609 29.4349 92.4609 28.0629C92.4609 26.7522 93.4666 25.5987 94.8905 25.5987C96.2606 25.5987 97.1419 26.726 97.1419 27.9145C97.1419 28.3949 96.9101 28.5087 96.4654 28.5087H93.956Z" fill="#1A57BB"/>
<path d="M97.5938 26.3953C97.5938 26.0022 97.8784 25.6876 98.288 25.6876C98.6618 25.6876 98.893 25.9235 98.9822 26.1243C99.2131 25.8536 99.5516 25.6 99.9431 25.6C100.299 25.6 100.655 25.8799 100.655 26.308C100.655 26.7798 100.29 26.8933 99.7828 27.0419C99.1777 27.2168 98.9822 27.3739 98.9822 28.0731V29.7334C98.9822 30.1265 98.6973 30.4414 98.288 30.4414C97.8784 30.4414 97.5938 30.1265 97.5938 29.7334V26.3953Z" fill="#1A57BB"/>
<path d="M29.6456 14.5555C29.6456 22.5944 14.8229 40 14.8229 40C14.8229 40 0 22.5944 0 14.5555C0 6.51659 6.63649 3.8147e-06 14.8229 3.8147e-06C23.0091 3.8147e-06 29.6456 6.51659 29.6456 14.5555Z" fill="#57ACFF"/>
<path d="M7.50481 10.7339C6.91776 11.8278 8.65539 11.9139 8.51538 13.1251C8.45118 13.6781 7.64366 13.5407 6.72867 13.0963C5.76835 12.6296 3.99907 12.9927 4.80049 14.0832C5.43576 14.9475 8.34923 14.1976 7.16118 15.8919C6.42802 16.9379 4.31743 15.3337 3.25749 15.2809C2.1836 15.2273 1.27732 15.8086 2.04156 17.0146C2.6623 17.995 4.30436 18.0178 5.36576 17.977C6.85008 17.9199 8.00182 18.6955 7.01624 19.8393C6.29847 20.6722 4.62156 19.926 4.20589 20.9423C3.78296 21.9772 5.1996 23.5098 6.17241 23.0865C6.46404 22.9596 6.90731 22.6087 7.15392 22.2861C7.77844 21.468 8.13776 21.3197 8.92495 21.5131C10.1964 21.8252 8.93163 23.5223 9.04317 24.8367C9.12189 25.7643 9.98896 25.976 10.6132 26.2059C11.0655 26.3724 12.2047 26.3847 12.5637 26.0339C13.341 25.2743 12.1629 24.0389 12.0685 23.2128C11.9996 22.6121 12.162 22.4521 12.7014 22.3916C13.4979 22.3024 13.5615 22.6829 13.6864 23.2765C13.8093 23.8583 13.8543 24.3444 14.5297 24.5349C14.8039 24.6122 15.8182 24.6279 16.0756 24.4616C17.0606 23.8238 15.4723 22.1974 17.3342 22.6675C18.0226 22.8415 18.0232 22.8446 18.0418 23.5457C18.0546 24.0258 18.0296 24.5067 18.0418 24.9868C18.0566 25.5715 18.0575 26.112 18.6742 26.3245C18.9472 26.4189 19.7176 26.3839 20.0124 26.3234C21.0064 26.12 20.928 25.0261 20.5564 24.254C20.1425 23.394 19.2095 22.5568 20.0562 21.561C20.7473 20.7484 21.9217 21.3408 22.6766 21.7847C23.5207 22.281 25.4565 23.0252 25.2078 21.2592C25.026 19.9694 23.6183 19.8456 22.8698 19.0478C21.7073 17.8087 23.9512 18.0215 24.5833 17.7699C26.0572 17.1829 24.8947 16.2014 23.9463 15.9803C22.4396 15.6289 21.9632 14.3231 23.7589 14.0418C24.172 13.9771 25.0391 14.2389 25.4916 14.0866C25.8416 13.9685 26.2852 13.8921 26.2837 13.0449C26.2826 12.3957 25.4942 11.7599 24.6594 12.1224C23.8812 12.4605 22.0239 12.7528 21.5478 11.8375C20.8507 10.498 22.5055 9.9977 22.6249 9.1996C22.8216 7.8835 20.9907 7.87124 20.2157 8.54069C19.7251 8.96485 19.7332 9.43948 19.6574 10.0065C19.5764 10.6127 18.9423 11.0882 18.3819 10.7579C17.2837 10.1109 19.559 7.56517 17.8492 7.2072C17.2017 7.07171 16.3547 7.86439 16.7181 9.3C16.8334 9.7561 16.7942 11.0274 16.1078 11.0197C14.7583 11.0049 15.5513 8.35044 15.4667 7.62023C15.3264 6.4091 13.9502 6.7879 13.757 7.26225C13.5842 7.68669 14.2616 8.58348 13.8653 9.35676C13.271 10.5163 11.9604 7.8353 11.8788 7.2072C11.6426 5.39079 12.1858 4.51682 11.7667 3.62915C11.2342 2.50046 8.55953 2.82906 8.51538 4.64746C8.48604 5.85516 9.39552 6.59707 9.79085 7.48331C10.2213 8.44856 10.4819 9.35791 10.578 10.4595C10.6963 11.8121 9.67902 12.0332 9.35805 11.3871C8.78784 10.2393 7.7552 10.267 7.50481 10.7339Z" fill="white"/>
<path d="M19.386 27.2843C19.386 28.8024 19.3868 30.3204 19.3857 31.8385C19.3848 32.9794 18.8102 33.5462 17.6559 33.5465C15.7597 33.5468 13.8637 33.5473 11.9675 33.5462C10.8893 33.5456 10.2923 32.9586 10.2918 31.8918C10.2897 28.8677 10.2862 25.8433 10.2932 22.8192C10.2964 21.4848 10.6031 20.2167 11.2352 19.0315C11.8167 17.9413 12.1136 16.7872 12.0959 15.5541C12.093 15.3525 12.0581 15.2164 11.8731 15.0841C11.5065 14.8222 11.3944 14.1519 11.5847 13.6379C11.7264 13.2548 12.0756 13.05 12.5999 13.0497C14.0854 13.0483 15.5711 13.0486 17.0566 13.0494C17.6016 13.0497 17.9615 13.2602 18.0974 13.6527C18.2816 14.1856 18.166 14.8248 17.7901 15.0932C17.6135 15.2193 17.5873 15.3499 17.5833 15.5359C17.556 16.7576 17.8406 17.9079 18.4161 18.9844C19.0746 20.2155 19.3819 21.5248 19.3851 22.9079C19.3886 24.3669 19.386 25.8256 19.386 27.2843Z" fill="#57ACFF"/>
</svg>
